<?xml version="1.0" encoding="utf-8"?>
<!-- Generator: Adobe Illustrator 27.8.0, SVG Export Plug-In . SVG Version: 6.00 Build 0)  -->
<svg version="1.1" id="Layer_1" xmlns="http://www.w3.org/2000/svg" xmlns:xlink="http://www.w3.org/1999/xlink" x="0px" y="0px"
	 viewBox="0 0 1000 1000" style="enable-background:new 0 0 1000 1000;" xml:space="preserve">
<style type="text/css">
	.st0{fill:#E0C9A6;}
</style>
<g id="Center_Cirkle">
	<circle class="st0" cx="461.6" cy="538" r="118.4"/>
</g>
<g id="Cirkel1">
	<circle class="st0" cx="630.9" cy="143.6" r="89"/>
</g>
<g id="Cirkel4">
	<circle class="st0" cx="111.8" cy="817.1" r="89"/>
</g>
<g id="Cirkel2">
	<circle class="st0" cx="911.8" cy="428.3" r="72.1"/>
</g>
<g id="Cirkel5">
	<circle class="st0" cx="173.2" cy="257.1" r="71.8"/>
</g>
<g id="Cirkel3">
	<circle class="st0" cx="582.5" cy="886" r="70.6"/>
</g>
<g id="Arms">
	
		<rect x="455" y="453.8" transform="matrix(0.9715 -0.2368 0.2368 0.9715 -94.8992 176.3846)" class="st0" width="463.4" height="58.7"/>
	
		<rect x="327.1" y="304.4" transform="matrix(0.3954 -0.9185 0.9185 0.3954 25.661 706.5378)" class="st0" width="444.7" height="58.7"/>
	
		<rect x="288.1" y="196.3" transform="matrix(0.6978 -0.7163 0.7163 0.6978 -188.8522 347.5118)" class="st0" width="58.7" height="402.6"/>
	
		<rect x="53.2" y="650.3" transform="matrix(0.7854 -0.619 0.619 0.7854 -360.184 320.3445)" class="st0" width="457.5" height="58.7"/>
	
		<rect x="492.7" y="527.8" transform="matrix(0.9445 -0.3284 0.3284 0.9445 -204.8418 210.9177)" class="st0" width="58.7" height="368.3"/>
</g>
</svg>
